<svg width="400" height="210" viewBox="0 0 400 210" fill="none" xmlns="http://www.w3.org/2000/svg">
<path d="M0.5 200C0.5 89.8192 89.8192 0.5 200 0.5C310.181 0.5 399.5 89.8192 399.5 200V209.5H0.5V200Z" fill="white" fill-opacity="0.1" stroke="black"/>
<path d="M399.97 196.51L393 196.631" stroke="black"/>
<path d="M399.878 193.02L392.5 193.278" stroke="black"/>
<path d="M399.726 189.533L392.5 189.912" stroke="black"/>
<path d="M399.513 186.049L392 186.574" stroke="black"/>
<path d="M399.239 182.569L386 183.727" stroke="black"/>
<path d="M398.904 179.094L391.5 179.873" stroke="black"/>
<path d="M398.509 175.626L391 176.548" stroke="black"/>
<path d="M398.054 172.165L390.5 173.227" stroke="black"/>
<path d="M397.538 168.713L390 169.907" stroke="black"/>
<path d="M396.326 161.838L389.484 163.168" stroke="black"/>
<path d="M395.63 158.418L388.409 159.953" stroke="black"/>
<path d="M394.875 155.01L387.824 156.637" stroke="black"/>
<path d="M394.06 151.616L386.752 153.438" stroke="black"/>
<path d="M393.186 148.236L380.349 151.676" stroke="black"/>
<path d="M392.253 144.872L385.096 146.925" stroke="black"/>
<path d="M391.262 141.526L384.027 143.738" stroke="black"/>
<path d="M390.212 138.197L382.957 140.554" stroke="black"/>
<path d="M389.104 134.886L381.889 137.371" stroke="black"/>
<path d="M386.717 128.325L380.21 130.823" stroke="black"/>
<path d="M385.438 125.077L378.593 127.842" stroke="black"/>
<path d="M384.102 121.852L377.442 124.679" stroke="black"/>
<path d="M382.71 118.651L375.83 121.714" stroke="black"/>
<path d="M381.263 115.474L369.218 121.091" stroke="black"/>
<path d="M379.76 112.324L373.068 115.588" stroke="black"/>
<path d="M378.203 109.2L371.461 112.635" stroke="black"/>
<path d="M376.591 106.104L369.856 109.685" stroke="black"/>
<path d="M374.925 103.036L368.25 106.736" stroke="black"/>
<path d="M371.435 96.9878L365.46 100.578" stroke="black"/>
<path d="M369.611 94.0116L363.35 97.9238" stroke="black"/>
<path d="M367.736 91.0676L361.667 95.0085" stroke="black"/>
<path d="M365.809 88.1568L359.565 92.3682" stroke="black"/>
<path d="M363.832 85.2801L352.946 92.9026" stroke="black"/>
<path d="M361.805 82.4384L355.782 86.8145" stroke="black"/>
<path d="M359.729 79.6324L353.686 84.1855" stroke="black"/>
<path d="M357.604 76.8631L351.593 81.5593" stroke="black"/>
<path d="M355.431 74.1313L349.5 78.9341" stroke="black"/>
<path d="M350.944 68.7819L345.683 73.355" stroke="black"/>
<path d="M348.631 66.1676L343.145 71.1075" stroke="black"/>
<path d="M346.273 63.594L340.981 68.5288" stroke="black"/>
<path d="M343.87 61.062L338.453 66.2936" stroke="black"/>
<path d="M341.423 58.5723L332.026 67.9695" stroke="black"/>
<path d="M338.934 56.1257L333.762 61.4814" stroke="black"/>
<path d="M336.402 53.723L331.242 59.2561" stroke="black"/>
<path d="M333.828 51.3647L328.724 57.0333" stroke="black"/>
<path d="M331.214 49.0518L326.207 54.8114" stroke="black"/>
<path d="M325.866 44.5629L321.48 49.9801" stroke="black"/>
<path d="M323.135 42.39L318.589 48.2076" stroke="black"/>
<path d="M320.365 40.265L316.011 46.0438" stroke="black"/>
<path d="M317.559 38.1887L313.133 44.2815" stroke="black"/>
<path d="M314.718 36.1617L307.095 47.0478" stroke="black"/>
<path d="M311.841 34.1846L307.678 40.3569" stroke="black"/>
<path d="M308.93 32.258L304.81 38.6031" stroke="black"/>
<path d="M305.986 30.3825L301.944 36.8513" stroke="black"/>
<path d="M303.01 28.5586L299.079 35.1002" stroke="black"/>
<path d="M296.964 25.0666L293.585 31.1632" stroke="black"/>
<path d="M293.897 23.401L290.431 29.9195" stroke="black"/>
<path d="M290.801 21.7892L287.516 28.2364" stroke="black"/>
<path d="M287.677 20.2317L284.375 27.0006" stroke="black"/>
<path d="M284.526 18.7289L278.91 30.7733" stroke="black"/>
<path d="M281.35 17.2814L278.322 24.0829" stroke="black"/>
<path d="M278.149 15.8895L275.193 22.8537" stroke="black"/>
<path d="M274.924 14.5537L272.066 21.6262" stroke="black"/>
<path d="M271.676 13.2744L268.941 20.3991" stroke="black"/>
<path d="M265.116 10.8841L262.847 17.4749" stroke="black"/>
<path d="M261.806 9.77649L259.525 16.7978" stroke="black"/>
<path d="M258.477 8.72683L256.362 15.6465" stroke="black"/>
<path d="M255.13 7.73544L253.054 14.9749" stroke="black"/>
<path d="M251.767 6.80262L248.327 19.6393" stroke="black"/>
<path d="M248.387 5.92863L246.586 13.1526" stroke="black"/>
<path d="M244.993 5.11378L243.291 12.4855" stroke="black"/>
<path d="M241.585 4.35826L239.999 11.8194" stroke="black"/>
<path d="M238.164 3.66232L236.708 11.1537" stroke="black"/>
<path d="M231.29 2.44759L230.199 9.33237" stroke="black"/>
<path d="M227.837 1.93165L226.81 9.24246" stroke="black"/>
<path d="M224.377 1.47604L223.495 8.65793" stroke="black"/>
<path d="M220.908 1.0809L220.121 8.5708" stroke="black"/>
<path d="M217.434 0.746309L216.276 13.9853" stroke="black"/>
<path d="M213.954 0.472435L213.435 7.89948" stroke="black"/>
<path d="M210.47 0.259345L210.074 7.81461" stroke="black"/>
<path d="M206.983 0.107108L206.716 7.73032" stroke="black"/>
<path d="M203.493 0.0157025L203.36 7.64618" stroke="black"/>
<path d="M196.512 0.0137416L196.634 6.98328" stroke="black"/>
<path d="M193.023 0.105114L193.28 7.48328" stroke="black"/>
<path d="M189.535 0.257368L189.914 7.48328" stroke="black"/>
<path d="M186.051 0.470463L186.577 7.98328" stroke="black"/>
<path d="M182.571 0.744326L183.73 13.9833" stroke="black"/>
<path d="M179.097 1.07889L179.875 8.48328" stroke="black"/>
<path d="M175.629 1.47404L176.551 8.98328" stroke="black"/>
<path d="M172.168 1.92966L173.23 9.48328" stroke="black"/>
<path d="M168.716 2.4456L169.91 9.98328" stroke="black"/>
<path d="M161.841 3.65607L163.171 10.4986" stroke="black"/>
<path d="M158.42 4.35197L159.955 11.5733" stroke="black"/>
<path d="M155.012 5.1075L156.64 12.1579" stroke="black"/>
<path d="M151.618 5.92235L153.44 13.2298" stroke="black"/>
<path d="M148.239 6.79633L151.678 19.633" stroke="black"/>
<path d="M144.875 7.72916L146.927 14.8859" stroke="black"/>
<path d="M141.528 8.72055L143.74 15.9556" stroke="black"/>
<path d="M138.199 9.7702L140.556 17.0247" stroke="black"/>
<path d="M134.889 10.8778L137.373 18.0936" stroke="black"/>
<path d="M128.327 13.2638L130.825 19.7714" stroke="black"/>
<path d="M125.079 14.5431L127.845 21.3882" stroke="black"/>
<path d="M121.854 15.8789L124.682 22.5396" stroke="black"/>
<path d="M118.653 17.2708L121.717 24.1509" stroke="black"/>
<path d="M115.477 18.7183L121.093 30.7627" stroke="black"/>
<path d="M112.326 20.2211L115.59 26.9128" stroke="black"/>
<path d="M109.203 21.7786L112.637 28.5196" stroke="black"/>
<path d="M106.106 23.3904L109.687 30.1254" stroke="black"/>
<path d="M103.039 25.056L106.739 31.7307" stroke="black"/>
<path d="M96.9901 28.5444L100.58 34.5193" stroke="black"/>
<path d="M94.0138 30.3682L97.9261 36.6291" stroke="black"/>
<path d="M91.0699 32.2437L95.0108 38.3122" stroke="black"/>
<path d="M88.1591 34.1703L92.3705 40.4139" stroke="black"/>
<path d="M85.2824 36.1474L92.9049 47.0335" stroke="black"/>
<path d="M82.4406 38.1744L86.8168 44.1977" stroke="black"/>
<path d="M79.6347 40.2507L84.1878 46.2929" stroke="black"/>
<path d="M76.8654 42.3757L81.5616 48.3865" stroke="black"/>
<path d="M74.1336 44.5486L78.9363 50.4795" stroke="black"/>
<path d="M68.784 49.0333L73.3571 54.294" stroke="black"/>
<path d="M66.1697 51.3462L71.1097 56.8326" stroke="black"/>
<path d="M63.5962 53.7045L68.531 58.9964" stroke="black"/>
<path d="M61.0642 56.1072L66.2957 61.5247" stroke="black"/>
<path d="M58.5745 58.5538L67.9716 67.9509" stroke="black"/>
<path d="M56.1279 61.0435L61.4835 66.2154" stroke="black"/>
<path d="M53.7251 63.5755L59.2582 68.7353" stroke="black"/>
<path d="M51.3669 66.1491L57.0355 71.2531" stroke="black"/>
<path d="M49.0539 68.7634L54.8136 73.7702" stroke="black"/>
<path d="M44.5649 74.1081L49.982 78.4948" stroke="black"/>
<path d="M42.3919 76.8399L48.2095 81.3851" stroke="black"/>
<path d="M40.267 79.6091L46.0457 83.9638" stroke="black"/>
<path d="M38.1906 82.4151L44.2835 86.8418" stroke="black"/>
<path d="M36.1636 85.2568L47.0498 92.8794" stroke="black"/>
<path d="M34.1865 88.1336L40.3589 92.2968" stroke="black"/>
<path d="M32.2599 91.0443L38.605 95.1649" stroke="black"/>
<path d="M30.3844 93.9883L36.8532 98.0304" stroke="black"/>
<path d="M28.5606 96.9645L35.1022 100.895" stroke="black"/>
<path d="M25.0682 103.007L31.1649 106.386" stroke="black"/>
<path d="M23.4027 106.075L29.9212 109.54" stroke="black"/>
<path d="M21.7909 109.171L28.238 112.456" stroke="black"/>
<path d="M20.2334 112.295L27.0023 115.596" stroke="black"/>
<path d="M18.7306 115.445L30.775 121.062" stroke="black"/>
<path d="M17.2831 118.621L24.0846 121.65" stroke="black"/>
<path d="M15.8912 121.823L22.8554 124.779" stroke="black"/>
<path d="M14.5554 125.048L21.6278 127.905" stroke="black"/>
<path d="M13.2761 128.295L20.4008 131.03" stroke="black"/>
<path d="M10.8855 134.852L17.4763 137.121" stroke="black"/>
<path d="M9.77793 138.162L16.7993 140.443" stroke="black"/>
<path d="M8.72826 141.491L15.6479 143.607" stroke="black"/>
<path d="M7.73687 144.838L14.9763 146.914" stroke="black"/>
<path d="M6.80405 148.202L19.6407 151.641" stroke="black"/>
<path d="M5.93006 151.581L13.1541 153.382" stroke="black"/>
<path d="M5.11522 154.975L12.4869 156.677" stroke="black"/>
<path d="M4.35969 158.383L11.8209 159.969" stroke="black"/>
<path d="M3.66376 161.804L11.1552 163.26" stroke="black"/>
<path d="M2.44878 168.675L9.33356 169.766" stroke="black"/>
<path d="M1.93284 172.127L9.24365 173.155" stroke="black"/>
<path d="M1.47723 175.588L8.65912 176.47" stroke="black"/>
<path d="M1.08206 179.056L8.57196 179.844" stroke="black"/>
<path d="M0.7475 182.531L13.9865 183.689" stroke="black"/>
<path d="M0.473626 186.011L7.90067 186.53" stroke="black"/>
<path d="M0.260536 189.495L7.8158 189.891" stroke="black"/>
<path d="M0.108299 192.982L7.73151 193.248" stroke="black"/>
<path d="M0.0168936 196.472L7.64737 196.605" stroke="black"/>
<path d="M396.962 165.27L384 167.556M354 172.846L224.5 195.68" stroke="black"/>
<path d="M387.941 131.596L375.573 136.097M346.948 146.516L223.38 191.491" stroke="black"/>
<path d="M373.21 99.9976L361.812 106.578M335.43 121.81L221.55 187.559" stroke="black"/>
<path d="M353.216 71.4372L343.134 79.8973M319.798 99.4784L219.065 184.004" stroke="black"/>
<path d="M328.565 46.7824L320.105 56.8647M300.524 80.2005L215.999 180.934" stroke="black"/>
<path d="M300.008 26.7817L293.427 38.1799M278.196 64.5615L212.447 178.442" stroke="black"/>
<path d="M268.413 12.0445L263.911 24.4123M253.493 53.0379L208.518 176.605" stroke="black"/>
<path d="M234.739 3.01792L232.454 15.9795M227.164 45.9795L204.33 175.479" stroke="black"/>
<path d="M165.282 3.01085L167.567 15.9724M172.857 45.9724L195.691 175.472" stroke="black"/>
<path d="M131.607 12.03L136.109 24.3977M146.527 53.0234L191.502 176.591" stroke="black"/>
<path d="M100.009 26.7597L106.59 38.1579M121.821 64.5395L187.57 178.42" stroke="black"/>
<path d="M71.4483 46.752L79.9083 56.8343M99.4894 80.1702L184.015 180.903" stroke="black"/>
<path d="M46.7932 71.4008L56.8755 79.8609M80.2114 99.442L180.944 183.967" stroke="black"/>
<path d="M26.7923 99.9551L38.1906 106.536M64.5721 121.767L178.453 187.516" stroke="black"/>
<path d="M12.0531 131.548L24.4208 136.049M53.0465 146.468L176.614 191.443" stroke="black"/>
<path d="M3.02385 165.218L15.9854 167.504M45.9854 172.793L175.485 195.628" stroke="black"/>
<path d="M200 0L200 14M200 200L200 43" stroke="black"/>
<path d="M200 200L43 200" stroke="black"/>
<path d="M400 200L387 200M200 200L357 200M0 200L12.5 200" stroke="black"/>
<path d="M225 200C225 186.193 213.807 175 200 175C186.193 175 175 186.193 175 200" stroke="black"/>
<path d="M353 200C353 115.5 284.5 47 200 47C115.5 47 47 115.5 47 200" stroke="black"/>
<path d="M22.0742 199.5C22.0742 200.086 21.8346 200.538 21.3555 200.855C20.8763 201.173 20.1732 201.332 19.2461 201.332C18.319 201.332 17.6172 201.176 17.1406 200.863C16.6641 200.548 16.4258 200.094 16.4258 199.5C16.4258 198.911 16.6654 198.46 17.1445 198.145C17.6211 197.829 18.3216 197.672 19.2461 197.672C20.1706 197.672 20.8737 197.832 21.3555 198.152C21.8346 198.47 22.0742 198.919 22.0742 199.5ZM21.4492 199.5C21.4492 199.128 21.2656 198.842 20.8984 198.645C20.5312 198.447 19.9805 198.348 19.2461 198.348C18.5065 198.348 17.957 198.449 17.5977 198.652C17.2357 198.853 17.0547 199.135 17.0547 199.5C17.0547 199.867 17.2344 200.151 17.5937 200.352C17.9531 200.552 18.5039 200.652 19.2461 200.652C19.9831 200.652 20.5352 200.555 20.9023 200.359C21.2669 200.161 21.4492 199.875 21.4492 199.5Z" fill="black"/>
<path d="M40.0742 195.492C40.0742 196.078 39.8346 196.53 39.3555 196.848C38.8763 197.165 38.1732 197.324 37.2461 197.324C36.319 197.324 35.6172 197.168 35.1406 196.855C34.6641 196.54 34.4258 196.086 34.4258 195.492C34.4258 194.904 34.6654 194.452 35.1445 194.137C35.6211 193.822 36.3216 193.664 37.2461 193.664C38.1706 193.664 38.8737 193.824 39.3555 194.145C39.8346 194.462 40.0742 194.911 40.0742 195.492ZM39.4492 195.492C39.4492 195.12 39.2656 194.835 38.8984 194.637C38.5312 194.439 37.9805 194.34 37.2461 194.34C36.5065 194.34 35.957 194.441 35.5977 194.645C35.2357 194.845 35.0547 195.128 35.0547 195.492C35.0547 195.859 35.2344 196.143 35.5937 196.344C35.9531 196.544 36.5039 196.645 37.2461 196.645C37.9831 196.645 38.5352 196.547 38.9023 196.352C39.2669 196.154 39.4492 195.867 39.4492 195.492Z" fill="black"/>
<path d="M39.6211 198.664C39.9232 199.018 40.0742 199.462 40.0742 199.996C40.0742 200.53 39.9232 200.975 39.6211 201.332C39.3164 201.686 38.9167 201.863 38.4219 201.863C38.0755 201.863 37.776 201.771 37.5234 201.586C37.2708 201.401 37.0859 201.15 36.9687 200.832C36.8568 201.059 36.7005 201.24 36.5 201.375C36.2969 201.508 36.0703 201.574 35.8203 201.574C35.4141 201.574 35.0807 201.424 34.8203 201.125C34.5573 200.826 34.4258 200.449 34.4258 199.996C34.4258 199.551 34.5573 199.18 34.8203 198.883C35.0833 198.583 35.4167 198.434 35.8203 198.434C36.0703 198.434 36.2969 198.499 36.5 198.629C36.7005 198.759 36.8568 198.936 36.9687 199.16C37.0885 198.845 37.2747 198.595 37.5273 198.41C37.7773 198.225 38.0755 198.133 38.4219 198.133C38.9193 198.133 39.319 198.31 39.6211 198.664ZM36.7461 199.996C36.7461 199.733 36.6602 199.512 36.4883 199.332C36.3164 199.15 36.1055 199.059 35.8555 199.059C35.6107 199.059 35.4049 199.15 35.2383 199.332C35.069 199.512 34.9844 199.733 34.9844 199.996C34.9844 200.264 35.0677 200.488 35.2344 200.668C35.401 200.848 35.6081 200.937 35.8555 200.937C36.1055 200.937 36.3164 200.848 36.4883 200.668C36.6602 200.486 36.7461 200.262 36.7461 199.996ZM39.4492 199.996C39.4492 199.658 39.349 199.376 39.1484 199.152C38.9479 198.926 38.6823 198.812 38.3516 198.812C38.026 198.812 37.7643 198.926 37.5664 199.152C37.3685 199.376 37.2695 199.658 37.2695 199.996C37.2695 200.337 37.3685 200.621 37.5664 200.848C37.7643 201.074 38.026 201.187 38.3516 201.187C38.6823 201.187 38.9479 201.074 39.1484 200.848C39.349 200.621 39.4492 200.337 39.4492 199.996Z" fill="black"/>
<path d="M34.5 204.469L34.5 203.836L40 203.836L40 204.504L35.2383 204.504L36.3828 205.824L35.6602 205.824L34.5 204.469Z" fill="black"/>
<path d="M25 200H31" stroke="black"/>
<path d="M377.949 204.495C377.949 203.909 378.189 203.457 378.668 203.14C379.147 202.822 379.85 202.663 380.777 202.663C381.704 202.663 382.406 202.819 382.883 203.132C383.359 203.447 383.598 203.901 383.598 204.495C383.598 205.084 383.358 205.536 382.879 205.851C382.402 206.166 381.702 206.323 380.777 206.323C379.853 206.323 379.15 206.163 378.668 205.843C378.189 205.525 377.949 205.076 377.949 204.495ZM378.574 204.495C378.574 204.868 378.758 205.153 379.125 205.351C379.492 205.549 380.043 205.648 380.777 205.648C381.517 205.648 382.066 205.546 382.426 205.343C382.788 205.142 382.969 204.86 382.969 204.495C382.969 204.128 382.789 203.844 382.43 203.644C382.07 203.443 381.519 203.343 380.777 203.343C380.04 203.343 379.488 203.441 379.121 203.636C378.756 203.834 378.574 204.12 378.574 204.495Z" fill="black"/>
<path d="M378.402 201.323C378.1 200.969 377.949 200.525 377.949 199.991C377.949 199.457 378.1 199.012 378.402 198.655C378.707 198.301 379.107 198.124 379.601 198.124C379.948 198.124 380.247 198.217 380.5 198.401C380.752 198.586 380.937 198.838 381.055 199.155C381.167 198.929 381.323 198.748 381.523 198.612C381.726 198.48 381.953 198.413 382.203 198.413C382.609 198.413 382.943 198.563 383.203 198.862C383.466 199.162 383.598 199.538 383.598 199.991C383.598 200.437 383.466 200.808 383.203 201.105C382.94 201.404 382.607 201.554 382.203 201.554C381.953 201.554 381.726 201.489 381.523 201.359C381.323 201.228 381.167 201.051 381.055 200.827C380.935 201.142 380.749 201.392 380.496 201.577C380.246 201.762 379.948 201.855 379.601 201.855C379.104 201.855 378.704 201.678 378.402 201.323ZM381.277 199.991C381.277 200.254 381.363 200.476 381.535 200.655C381.707 200.838 381.918 200.929 382.168 200.929C382.413 200.929 382.618 200.838 382.785 200.655C382.954 200.476 383.039 200.254 383.039 199.991C383.039 199.723 382.956 199.499 382.789 199.319C382.622 199.14 382.415 199.05 382.168 199.05C381.918 199.05 381.707 199.14 381.535 199.319C381.363 199.502 381.277 199.726 381.277 199.991ZM378.574 199.991C378.574 200.33 378.674 200.611 378.875 200.835C379.075 201.062 379.341 201.175 379.672 201.175C379.997 201.175 380.259 201.062 380.457 200.835C380.655 200.611 380.754 200.33 380.754 199.991C380.754 199.65 380.655 199.366 380.457 199.14C380.259 198.913 379.997 198.8 379.672 198.8C379.341 198.8 379.075 198.913 378.875 199.14C378.674 199.366 378.574 199.65 378.574 199.991Z" fill="black"/>
<path d="M383.523 195.519L383.523 196.151L378.023 196.151L378.023 195.484L382.785 195.484L381.641 194.163L382.363 194.163L383.523 195.519Z" fill="black"/>
<path d="M359.949 200.487C359.949 199.901 360.189 199.45 360.668 199.132C361.147 198.814 361.85 198.655 362.777 198.655C363.704 198.655 364.406 198.812 364.883 199.124C365.359 199.439 365.598 199.894 365.598 200.487C365.598 201.076 365.358 201.528 364.879 201.843C364.402 202.158 363.702 202.316 362.777 202.316C361.853 202.316 361.15 202.155 360.668 201.835C360.189 201.517 359.949 201.068 359.949 200.487ZM360.574 200.487C360.574 200.86 360.758 201.145 361.125 201.343C361.492 201.541 362.043 201.64 362.777 201.64C363.517 201.64 364.066 201.538 364.426 201.335C364.788 201.135 364.969 200.852 364.969 200.487C364.969 200.12 364.789 199.836 364.43 199.636C364.07 199.435 363.519 199.335 362.777 199.335C362.04 199.335 361.488 199.433 361.121 199.628C360.756 199.826 360.574 200.112 360.574 200.487Z" fill="black"/>
<path d="M375.023 199.987L369.023 199.987" stroke="black"/>
<path d="M376.028 173.527C375.927 172.95 376.084 172.463 376.501 172.067C376.917 171.671 377.582 171.393 378.495 171.232C379.408 171.071 380.127 171.103 380.65 171.328C381.174 171.555 381.488 171.961 381.591 172.546C381.693 173.126 381.536 173.612 381.118 174.006C380.704 174.399 380.041 174.676 379.131 174.836C378.22 174.997 377.5 174.961 376.97 174.729C376.443 174.5 376.129 174.099 376.028 173.527ZM376.644 173.418C376.708 173.785 376.939 174.034 377.335 174.165C377.731 174.296 378.29 174.298 379.014 174.171C379.742 174.042 380.265 173.847 380.584 173.584C380.906 173.324 381.035 173.014 380.972 172.655C380.908 172.294 380.682 172.045 380.293 171.91C379.904 171.775 379.344 171.772 378.613 171.901C377.888 172.029 377.361 172.221 377.033 172.477C376.708 172.735 376.579 173.049 376.644 173.418Z" fill="black"/>
<path d="M380.41 166.277L381.063 169.982L380.506 170.08L375.18 168.29L375.046 167.528L380.318 169.352L379.795 166.386L380.41 166.277Z" fill="black"/>
<path d="M379.959 163.719L380.069 164.342L374.652 165.297L374.536 164.639L379.226 163.812L377.869 162.711L378.581 162.585L379.959 163.719Z" fill="black"/>
<path d="M357.91 174.433C357.809 173.856 357.966 173.369 358.383 172.973C358.8 172.577 359.464 172.299 360.377 172.138C361.29 171.977 362.009 172.009 362.532 172.234C363.056 172.461 363.37 172.867 363.473 173.452C363.575 174.032 363.418 174.518 363.001 174.912C362.586 175.305 361.923 175.582 361.013 175.742C360.103 175.903 359.382 175.867 358.852 175.635C358.325 175.406 358.011 175.005 357.91 174.433ZM358.526 174.324C358.591 174.691 358.821 174.94 359.217 175.071C359.613 175.202 360.172 175.204 360.896 175.077C361.624 174.948 362.147 174.753 362.466 174.49C362.788 174.23 362.917 173.92 362.854 173.561C362.79 173.2 362.564 172.951 362.175 172.816C361.786 172.681 361.226 172.678 360.495 172.807C359.77 172.935 359.243 173.127 358.915 173.383C358.591 173.641 358.461 173.955 358.526 174.324Z" fill="black"/>
<path d="M362.624 169.064L362.734 169.687L357.317 170.642L357.201 169.985L361.891 169.158L360.534 168.056L361.246 167.931L362.624 169.064Z" fill="black"/>
<path d="M372.364 169.596L366.455 170.638" stroke="black"/>
<path d="M368.759 143.364C368.559 142.814 368.629 142.307 368.971 141.845C369.313 141.382 369.919 140.993 370.79 140.676C371.661 140.358 372.374 140.265 372.929 140.396C373.485 140.529 373.864 140.875 374.067 141.432C374.268 141.986 374.198 142.492 373.855 142.952C373.515 143.411 372.911 143.799 372.042 144.115C371.173 144.431 370.458 144.521 369.896 144.385C369.337 144.25 368.958 143.91 368.759 143.364ZM369.347 143.151C369.474 143.501 369.744 143.706 370.157 143.766C370.569 143.826 371.121 143.731 371.811 143.48C372.506 143.227 372.988 142.944 373.256 142.63C373.527 142.318 373.601 141.99 373.476 141.648C373.351 141.303 373.085 141.097 372.678 141.032C372.272 140.966 371.72 141.06 371.023 141.314C370.33 141.566 369.845 141.847 369.567 142.156C369.292 142.467 369.218 142.798 369.347 143.151Z" fill="black"/>
<path d="M369.658 140.26C369.315 140.391 368.977 140.425 368.644 140.363C368.311 140.302 368.022 140.162 367.776 139.944C367.53 139.725 367.348 139.454 367.23 139.128C367.044 138.617 367.049 138.13 367.247 137.667C367.447 137.203 367.802 136.879 368.314 136.692C368.745 136.536 369.212 136.534 369.718 136.689L372.593 137.6L372.866 138.349L370.534 137.572C370.628 137.701 370.703 137.843 370.759 137.997C370.862 138.281 370.893 138.57 370.85 138.862C370.806 139.155 370.682 139.429 370.475 139.684C370.271 139.939 369.999 140.131 369.658 140.26ZM367.816 138.898C367.941 139.243 368.153 139.486 368.451 139.627C368.752 139.77 369.083 139.773 369.443 139.636C369.809 139.498 370.057 139.278 370.189 138.978C370.323 138.677 370.329 138.356 370.205 138.016C370.081 137.676 369.86 137.438 369.541 137.302C369.226 137.164 368.898 137.16 368.56 137.289C368.194 137.425 367.946 137.64 367.818 137.933C367.69 138.229 367.689 138.551 367.816 138.898Z" fill="black"/>
<path d="M370.927 133.023L371.144 133.617L365.975 135.498L365.747 134.871L370.221 133.242L368.694 132.393L369.373 132.146L370.927 133.023Z" fill="black"/>
<path d="M351.074 147.403C350.874 146.852 350.944 146.346 351.286 145.883C351.627 145.421 352.234 145.031 353.105 144.714C353.976 144.397 354.689 144.304 355.244 144.434C355.799 144.567 356.179 144.913 356.382 145.471C356.583 146.024 356.512 146.53 356.17 146.99C355.83 147.45 355.225 147.837 354.357 148.153C353.488 148.47 352.773 148.56 352.21 148.423C351.651 148.289 351.273 147.948 351.074 147.403ZM351.661 147.189C351.789 147.539 352.059 147.744 352.471 147.804C352.884 147.865 353.436 147.769 354.126 147.518C354.821 147.265 355.302 146.982 355.57 146.668C355.842 146.356 355.915 146.029 355.791 145.686C355.665 145.341 355.399 145.136 354.993 145.07C354.587 145.005 354.035 145.099 353.337 145.353C352.645 145.605 352.159 145.885 351.881 146.194C351.606 146.505 351.533 146.837 351.661 147.189Z" fill="black"/>
<path d="M349.881 142.092L350.817 144.665L350.234 144.878L348.965 141.39L349.445 141.215L352.339 142.507C352.651 142.648 352.912 142.729 353.122 142.75C353.331 142.771 353.524 142.749 353.701 142.685C353.994 142.578 354.19 142.408 354.289 142.176C354.389 141.942 354.389 141.687 354.289 141.411C354.181 141.115 354.006 140.911 353.763 140.8C353.523 140.69 353.215 140.704 352.838 140.841L352.457 140.98L352.284 140.324L352.604 140.207C353.14 140.012 353.601 140.009 353.989 140.198C354.378 140.386 354.662 140.723 354.839 141.21C355.005 141.665 355.01 142.086 354.854 142.473C354.699 142.862 354.395 143.139 353.942 143.303C353.673 143.401 353.402 143.433 353.13 143.4C352.86 143.367 352.545 143.271 352.185 143.112L349.881 142.092Z" fill="black"/>
<path d="M364.468 140.129L358.83 142.181" stroke="black"/>
<path d="M356.363 114.923C356.07 114.415 356.052 113.904 356.308 113.389C356.564 112.875 357.093 112.386 357.896 111.922C358.699 111.458 359.385 111.243 359.954 111.275C360.524 111.31 360.958 111.584 361.255 112.098C361.549 112.608 361.567 113.119 361.31 113.632C361.055 114.143 360.527 114.63 359.726 115.092C358.926 115.554 358.237 115.767 357.659 115.73C357.086 115.695 356.653 115.426 356.363 114.923ZM356.904 114.61C357.091 114.933 357.392 115.088 357.809 115.076C358.226 115.063 358.752 114.874 359.388 114.507C360.029 114.137 360.454 113.774 360.664 113.418C360.877 113.064 360.892 112.729 360.71 112.413C360.527 112.095 360.229 111.939 359.817 111.945C359.406 111.951 358.879 112.14 358.236 112.511C357.598 112.879 357.169 113.24 356.948 113.592C356.731 113.946 356.717 114.285 356.904 114.61Z" fill="black"/>
<path d="M357.174 109.101C357.509 109.68 357.624 110.191 357.521 110.632C357.421 111.072 357.131 111.43 356.653 111.706C356.179 111.98 355.707 112.055 355.237 111.933C354.77 111.812 354.399 111.513 354.124 111.037C354.003 110.827 353.92 110.61 353.873 110.384C353.831 110.159 353.826 109.937 353.86 109.719C353.897 109.503 353.986 109.295 354.127 109.096C354.269 108.9 354.458 108.733 354.695 108.597C354.761 108.559 354.845 108.518 354.949 108.473L355.345 109.042C355.204 109.1 355.11 109.142 355.062 109.17C354.895 109.266 354.764 109.379 354.668 109.51C354.573 109.643 354.517 109.779 354.498 109.919C354.482 110.058 354.488 110.193 354.515 110.324C354.545 110.458 354.595 110.587 354.666 110.711C354.844 111.017 355.082 111.207 355.383 111.28C355.685 111.355 355.988 111.305 356.293 111.129C356.611 110.946 356.805 110.704 356.876 110.405C356.948 110.108 356.863 109.75 356.623 109.333L355.927 108.129L358.303 107.15L359.744 109.646L359.2 109.961L358.043 107.958L356.807 108.465L357.174 109.101Z" fill="black"/>
<path d="M356.702 104.362L357.019 104.91L352.255 107.66L351.921 107.081L356.045 104.7L354.394 104.129L355.02 103.768L356.702 104.362Z" fill="black"/>
<path d="M339.648 121.971C339.355 121.463 339.336 120.952 339.592 120.437C339.849 119.923 340.378 119.434 341.181 118.97C341.984 118.507 342.67 118.291 343.239 118.323C343.809 118.358 344.242 118.632 344.539 119.147C344.834 119.656 344.852 120.167 344.595 120.68C344.339 121.191 343.812 121.678 343.011 122.14C342.21 122.602 341.521 122.815 340.944 122.778C340.37 122.743 339.938 122.474 339.648 121.971ZM340.189 121.658C340.375 121.981 340.677 122.136 341.094 122.124C341.511 122.112 342.037 121.922 342.673 121.555C343.314 121.185 343.739 120.822 343.948 120.467C344.162 120.112 344.177 119.777 343.995 119.461C343.811 119.143 343.514 118.987 343.102 118.993C342.691 118.999 342.163 119.188 341.521 119.559C340.882 119.927 340.453 120.288 340.233 120.641C340.016 120.994 340.001 121.333 340.189 121.658Z" fill="black"/>
<path d="M337.374 118.033C336.764 116.975 337.023 116.12 338.153 115.468L338.527 116.046C338.128 116.276 337.872 116.523 337.76 116.787C337.647 117.05 337.696 117.363 337.905 117.726C338.081 118.031 338.309 118.227 338.588 118.315C338.869 118.406 339.148 118.371 339.426 118.211C339.707 118.048 339.878 117.828 339.937 117.55C339.998 117.275 339.949 117.001 339.791 116.728L339.655 116.491L340.152 116.204L340.285 116.434C340.402 116.637 340.576 116.768 340.806 116.828C341.035 116.887 341.258 116.855 341.472 116.732C341.686 116.608 341.817 116.43 341.863 116.199C341.91 115.968 341.866 115.736 341.732 115.503C341.646 115.354 341.549 115.241 341.441 115.162C341.333 115.086 341.217 115.046 341.092 115.043C340.969 115.039 340.846 115.056 340.721 115.095C340.596 115.134 340.46 115.196 340.314 115.28L339.99 114.673C340.464 114.4 340.896 114.308 341.288 114.398C341.681 114.49 342.004 114.755 342.258 115.195C342.483 115.585 342.555 115.977 342.472 116.371C342.391 116.766 342.178 117.064 341.833 117.263C341.598 117.399 341.355 117.455 341.104 117.431C340.853 117.408 340.633 117.323 340.443 117.177C340.522 117.495 340.505 117.803 340.394 118.099C340.282 118.395 340.065 118.636 339.742 118.822C339.314 119.069 338.88 119.117 338.44 118.965C338.002 118.815 337.646 118.504 337.374 118.033Z" fill="black"/>
<path d="M351.575 112.482L346.379 115.482" stroke="black"/>
<path d="M339.216 89.0659C338.84 88.617 338.733 88.1169 338.896 87.5655C339.058 87.0141 339.495 86.4405 340.205 85.8446C340.915 85.2487 341.553 84.9172 342.119 84.8503C342.687 84.7853 343.162 84.9803 343.543 85.4351C343.922 85.886 344.028 86.3861 343.864 86.9355C343.701 87.4832 343.266 88.0542 342.558 88.6484C341.85 89.2427 341.208 89.5719 340.633 89.6362C340.062 89.7009 339.59 89.5107 339.216 89.0659ZM339.695 88.6641C339.934 88.9494 340.258 89.0498 340.667 88.9654C341.075 88.881 341.561 88.6028 342.123 88.1307C342.69 87.6553 343.046 87.2243 343.19 86.8377C343.339 86.4515 343.296 86.1187 343.061 85.8394C342.825 85.5581 342.505 85.4562 342.101 85.5335C341.697 85.6109 341.211 85.8882 340.642 86.3652C340.077 86.839 339.717 87.2686 339.562 87.6543C339.409 88.0402 339.454 88.3769 339.695 88.6641Z" fill="black"/>
<path d="M339.036 86.0501L338.561 86.4493L338.016 85.8L337.169 86.5106L336.735 85.9929L337.581 85.2823L335.889 83.2655L336.368 82.8637L340.727 82.1942L341.382 82.9752L338.492 85.4008L339.036 86.0501ZM336.814 83.4019L338.057 84.8831L340.568 82.7764L336.814 83.4019Z" fill="black"/>
<path d="M337.716 78.6064L338.123 79.0911L333.91 82.6265L333.48 82.1148L337.128 79.054L335.403 78.7783L335.956 78.3138L337.716 78.6064Z" fill="black"/>
<path d="M323.979 98.9094C323.602 98.4606 323.495 97.9605 323.658 97.4091C323.821 96.8577 324.257 96.2841 324.968 95.6881C325.678 95.0922 326.316 94.7608 326.882 94.6939C327.449 94.6289 327.924 94.8239 328.306 95.2787C328.684 95.7295 328.791 96.2297 328.626 96.779C328.464 97.3268 328.028 97.8977 327.32 98.492C326.612 99.0862 325.97 99.4155 325.395 99.4798C324.824 99.5444 324.352 99.3543 323.979 98.9094ZM324.457 98.5077C324.697 98.793 325.021 98.8934 325.429 98.809C325.838 98.7246 326.323 98.4463 326.886 97.9743C327.452 97.4989 327.808 97.0679 327.953 96.6813C328.101 96.295 328.058 95.9622 327.824 95.6829C327.588 95.4017 327.268 95.2997 326.864 95.3771C326.459 95.4545 325.973 95.7317 325.404 96.2088C324.84 96.6825 324.48 97.1122 324.324 97.4979C324.172 97.8838 324.216 98.2204 324.457 98.5077Z" fill="black"/>
<path d="M323.799 95.8937L323.323 96.2929L322.778 95.6436L321.931 96.3541L321.497 95.8365L322.344 95.1259L320.651 93.109L321.13 92.7073L325.489 92.0378L326.145 92.8188L323.254 95.2443L323.799 95.8937ZM321.577 93.2454L322.82 94.7266L325.33 92.62L321.577 93.2454Z" fill="black"/>
<path d="M334.077 87.4933L329.481 91.3501" stroke="black"/>
<path d="M317.84 66.5797C317.391 66.203 317.199 65.7291 317.264 65.1578C317.328 64.5865 317.658 63.9458 318.254 63.2356C318.85 62.5254 319.421 62.0882 319.967 61.924C320.515 61.7615 321.016 61.8711 321.471 62.2527C321.921 62.631 322.114 63.105 322.047 63.6746C321.982 64.2422 321.652 64.8801 321.058 65.5883C320.464 66.2965 319.889 66.7322 319.334 66.8953C318.783 67.0582 318.285 66.953 317.84 66.5797ZM318.242 66.1009C318.527 66.3403 318.863 66.3829 319.251 66.2288C319.639 66.0748 320.068 65.7165 320.541 65.1539C321.016 64.5874 321.291 64.1011 321.367 63.6953C321.446 63.2891 321.346 62.9688 321.066 62.7345C320.785 62.4985 320.452 62.4536 320.068 62.6001C319.683 62.7465 319.252 63.1039 318.775 63.6725C318.301 64.237 318.021 64.7227 317.935 65.1296C317.852 65.5361 317.954 65.8598 318.242 66.1009Z" fill="black"/>
<path d="M314.357 63.657C313.421 62.8719 313.373 61.9797 314.211 60.9802L314.761 61.3952C314.464 61.7483 314.308 62.0679 314.293 62.3539C314.277 62.6399 314.43 62.9177 314.751 63.1872C315.02 63.4132 315.301 63.5198 315.594 63.5072C315.889 63.4961 316.139 63.368 316.345 63.1226C316.554 62.8732 316.639 62.6079 316.6 62.3267C316.563 62.0472 316.423 61.8061 316.182 61.6036L315.972 61.4278L316.341 60.9879L316.545 61.1587C316.724 61.3093 316.932 61.3734 317.169 61.3509C317.405 61.3283 317.603 61.2223 317.762 61.0328C317.921 60.8433 317.983 60.6317 317.948 60.3982C317.913 60.1647 317.792 59.9617 317.587 59.7893C317.455 59.6788 317.325 59.6052 317.196 59.5684C317.069 59.5333 316.946 59.5357 316.828 59.5757C316.711 59.6136 316.601 59.6723 316.497 59.7516C316.393 59.8309 316.286 59.9354 316.177 60.0651L315.666 59.6052C316.017 59.1863 316.393 58.952 316.791 58.9024C317.192 58.8544 317.587 58.9936 317.976 59.32C318.321 59.6096 318.522 59.9534 318.579 60.3513C318.638 60.751 318.539 61.1034 318.283 61.4087C318.109 61.6161 317.9 61.7518 317.656 61.8156C317.412 61.8795 317.176 61.8752 316.948 61.8027C317.131 62.0751 317.22 62.3695 317.216 62.6859C317.213 63.0023 317.091 63.3032 316.852 63.5884C316.534 63.9675 316.142 64.1607 315.677 64.1681C315.214 64.1772 314.774 64.0068 314.357 63.657Z" fill="black"/>
<path d="M314.546 56.5396L315.031 56.9463L311.496 61.1596L310.984 60.7302L314.045 57.0825L312.298 57.1106L312.762 56.557L314.546 56.5396Z" fill="black"/>
<path d="M304.543 78.9197C304.094 78.5431 303.902 78.0691 303.967 77.4978C304.031 76.9265 304.362 76.2858 304.958 75.5756C305.554 74.8654 306.124 74.4282 306.67 74.264C307.218 74.1015 307.719 74.2111 308.174 74.5927C308.625 74.971 308.817 75.445 308.75 76.0146C308.685 76.5822 308.356 77.2201 307.761 77.9283C307.167 78.6365 306.593 79.0722 306.037 79.2354C305.486 79.3982 304.988 79.293 304.543 78.9197ZM304.945 78.4409C305.23 78.6803 305.567 78.7229 305.954 78.5689C306.342 78.4148 306.772 78.0565 307.244 77.4939C307.719 76.9274 307.995 76.4412 308.07 76.0353C308.149 75.6291 308.049 75.3089 307.77 75.0745C307.488 74.8385 307.155 74.7937 306.771 74.9401C306.386 75.0865 305.955 75.444 305.478 76.0125C305.005 76.5771 304.724 77.0628 304.638 77.4696C304.555 77.8761 304.658 78.1999 304.945 78.4409Z" fill="black"/>
<path d="M303.314 73.1713C303.826 73.6015 304.11 74.0416 304.164 74.4916C304.22 74.9396 304.07 75.3751 303.715 75.798C303.364 76.2169 302.946 76.4494 302.462 76.4954C301.982 76.5411 301.531 76.3874 301.11 76.0342C300.925 75.8785 300.772 75.7025 300.651 75.506C300.534 75.3092 300.454 75.1027 300.411 74.8865C300.372 74.67 300.384 74.4443 300.449 74.2094C300.515 73.9763 300.636 73.7549 300.812 73.5455C300.861 73.4876 300.926 73.42 301.008 73.3426L301.575 73.7421C301.462 73.8444 301.388 73.9165 301.353 73.9584C301.229 74.106 301.144 74.2576 301.099 74.4132C301.055 74.5704 301.049 74.7179 301.079 74.8558C301.112 74.9916 301.163 75.1165 301.234 75.2304C301.307 75.346 301.398 75.4498 301.508 75.5419C301.779 75.7696 302.069 75.8662 302.376 75.8319C302.686 75.7993 302.954 75.6484 303.18 75.379C303.416 75.0978 303.516 74.8043 303.48 74.4988C303.446 74.1949 303.244 73.8882 302.875 73.5785L301.81 72.6846L303.707 70.952L305.916 72.8051L305.511 73.2868L303.74 71.8004L302.751 72.6993L303.314 73.1713Z" fill="black"/>
<path d="M312.506 65.9234L308.649 70.5197" stroke="black"/>
<path d="M292.885 48.1478C292.378 47.8548 292.106 47.4214 292.071 46.8476C292.035 46.2738 292.249 45.5854 292.713 44.7826C293.176 43.9797 293.662 43.45 294.171 43.1935C294.682 42.9384 295.195 42.9592 295.709 43.2561C296.219 43.5504 296.491 43.9838 296.524 44.5563C296.558 45.1266 296.345 45.812 295.882 46.6126C295.42 47.4133 294.93 47.9421 294.412 48.1992C293.897 48.4553 293.388 48.4382 292.885 48.1478ZM293.198 47.6065C293.52 47.7927 293.859 47.7763 294.214 47.5573C294.569 47.3382 294.93 46.9107 295.297 46.2747C295.667 45.6342 295.854 45.1076 295.857 44.6948C295.865 44.2811 295.711 43.983 295.395 43.8008C295.077 43.6172 294.741 43.6308 294.388 43.8418C294.035 44.0528 293.672 44.4796 293.301 45.1224C292.933 45.7606 292.741 46.2876 292.727 46.7032C292.716 47.1179 292.873 47.419 293.198 47.6065Z" fill="black"/>
<path d="M288.558 44.8464L290.929 46.2155L290.618 46.7534L287.405 44.898L287.661 44.4548L290.707 43.5841C291.037 43.4919 291.289 43.3863 291.463 43.2672C291.637 43.1482 291.771 43.0074 291.865 42.8451C292.021 42.5744 292.062 42.3185 291.988 42.0772C291.915 41.8336 291.751 41.6383 291.496 41.4911C291.223 41.3336 290.958 41.2903 290.701 41.3611C290.447 41.4311 290.22 41.6397 290.019 41.987L289.816 42.3388L289.262 41.9468L289.432 41.6525C289.717 41.1586 290.069 40.8594 290.487 40.755C290.906 40.6484 291.34 40.7246 291.789 40.9837C292.209 41.2259 292.483 41.5451 292.612 41.9414C292.743 42.3389 292.688 42.7463 292.448 43.1636C292.304 43.4116 292.117 43.6104 291.887 43.7599C291.66 43.9085 291.357 44.0373 290.978 44.1464L288.558 44.8464Z" fill="black"/>
<path d="M287.898 38.8321L288.446 39.1485L285.696 43.9116L285.118 43.5777L287.499 39.4539L285.783 39.7849L286.144 39.1591L287.898 38.8321Z" fill="black"/>
<path d="M281.933 62.6093C281.426 62.3163 281.154 61.8829 281.119 61.3091C281.083 60.7353 281.297 60.0469 281.761 59.244C282.224 58.4412 282.71 57.9115 283.219 57.655C283.731 57.3999 284.243 57.4207 284.757 57.7176C285.267 58.0119 285.539 58.4453 285.572 59.0178C285.607 59.588 285.393 60.2735 284.93 61.0741C284.468 61.8747 283.978 62.4036 283.46 62.6607C282.945 62.9168 282.436 62.8996 281.933 62.6093ZM282.246 62.068C282.568 62.2542 282.907 62.2378 283.262 62.0188C283.617 61.7997 283.978 61.3722 284.345 60.7362C284.715 60.0957 284.902 59.5691 284.906 59.1563C284.913 58.7425 284.759 58.4445 284.443 58.2622C284.125 58.0786 283.789 58.0923 283.436 58.3033C283.083 58.5143 282.72 58.9411 282.349 59.5839C281.981 60.2221 281.789 60.7491 281.775 61.1647C281.764 61.5794 281.921 61.8805 282.246 62.068Z" fill="black"/>
<path d="M280.627 59.6537C280.447 59.9743 280.211 60.218 279.916 60.3846C279.621 60.5513 279.31 60.63 278.981 60.6208C278.653 60.6115 278.339 60.5204 278.039 60.3472C277.567 60.075 277.258 59.6983 277.112 59.217C276.968 58.7335 277.031 58.256 277.303 57.7847C277.533 57.3878 277.89 57.086 278.376 56.8795L281.165 55.7291L281.855 56.1276L279.569 57.0317C279.725 57.0702 279.873 57.1304 280.015 57.2124C280.277 57.3635 280.485 57.565 280.641 57.817C280.796 58.069 280.876 58.3591 280.882 58.6873C280.89 59.0132 280.804 59.3354 280.627 59.6537ZM278.339 59.7947C278.657 59.9783 278.976 60.0283 279.295 59.9448C279.617 59.8603 279.873 59.6499 280.061 59.3135C280.252 58.9726 280.301 58.6448 280.209 58.3301C280.118 58.0132 279.916 57.7642 279.603 57.5832C279.289 57.4022 278.967 57.3618 278.635 57.4621C278.305 57.5601 278.052 57.7672 277.875 58.0833C277.682 58.4229 277.631 58.7465 277.721 59.054C277.813 59.3629 278.019 59.6098 278.339 59.7947Z" fill="black"/>
<path d="M287.518 48.4277L284.518 53.6238" stroke="black"/>
<path d="M265.108 34.329C264.557 34.1286 264.215 33.7489 264.08 33.19C263.945 32.6311 264.036 31.916 264.354 31.0448C264.671 30.1737 265.058 29.5676 265.514 29.2267C265.973 28.8866 266.482 28.8181 267.04 29.0212C267.593 29.2225 267.935 29.6022 268.068 30.1602C268.201 30.7158 268.109 31.428 267.793 32.2967C267.477 33.1654 267.086 33.7714 266.62 34.1145C266.158 34.4561 265.654 34.5276 265.108 34.329ZM265.322 33.7417C265.672 33.8691 266.002 33.7941 266.314 33.5167C266.625 33.2394 266.907 32.7557 267.158 32.0656C267.411 31.3706 267.503 30.8195 267.435 30.4123C267.371 30.0036 267.167 29.7369 266.825 29.6122C266.48 29.4866 266.151 29.5584 265.84 29.8275C265.529 30.0966 265.246 30.5799 264.992 31.2773C264.74 31.9699 264.643 32.522 264.701 32.9339C264.762 33.3442 264.969 33.6134 265.322 33.7417Z" fill="black"/>
<path d="M262.815 27.5626L263.41 27.779L261.529 32.9473L260.901 32.7189L262.53 28.2443L260.897 28.8682L261.145 28.1892L262.815 27.5626Z" fill="black"/>
<path d="M258.579 26.0208L259.174 26.2372L257.293 31.4055L256.665 31.1771L258.294 26.7025L256.661 27.3265L256.909 26.6474L258.579 26.0208Z" fill="black"/>
<path d="M256.833 50.4726C256.283 50.2722 255.94 49.8925 255.806 49.3336C255.671 48.7747 255.762 48.0596 256.079 47.1884C256.396 46.3173 256.783 45.7112 257.24 45.3703C257.699 45.0302 258.207 44.9617 258.765 45.1648C259.318 45.3661 259.661 45.7458 259.793 46.3038C259.926 46.8594 259.835 47.5716 259.519 48.4403C259.202 49.309 258.811 49.915 258.346 50.2581C257.883 50.5997 257.379 50.6712 256.833 50.4726ZM257.047 49.8853C257.397 50.0127 257.728 49.9377 258.04 49.6603C258.351 49.383 258.632 48.8992 258.884 48.2092C259.137 47.5142 259.229 46.9631 259.161 46.5559C259.096 46.1472 258.893 45.8805 258.55 45.7558C258.205 45.6302 257.877 45.702 257.566 45.9711C257.254 46.2402 256.972 46.7235 256.718 47.4209C256.466 48.1134 256.369 48.6656 256.427 49.0775C256.488 49.4878 256.695 49.757 257.047 49.8853Z" fill="black"/>
<path d="M252.746 43.0528L256.281 44.3394L256.087 44.8717L251.874 48.5885L251.147 48.324L255.362 44.6702L252.532 43.6401L252.746 43.0528Z" fill="black"/>
<path d="M259.871 35.5366L257.819 41.1747" stroke="black"/>
<path d="M235.353 25.5432C234.775 25.4415 234.372 25.1271 234.142 24.6C233.913 24.0729 233.878 23.3529 234.039 22.4399C234.2 21.5269 234.476 20.8629 234.867 20.4478C235.26 20.0332 235.749 19.8775 236.333 19.9806C236.913 20.0828 237.316 20.3972 237.543 20.9238C237.771 21.4478 237.805 22.1651 237.644 23.0755C237.483 23.9859 237.204 24.6506 236.805 25.0694C236.408 25.4861 235.924 25.644 235.353 25.5432ZM235.461 24.9277C235.828 24.9924 236.141 24.8611 236.399 24.5338C236.658 24.2066 236.851 23.6814 236.978 22.9581C237.107 22.2298 237.102 21.671 236.965 21.2818C236.83 20.8905 236.583 20.6632 236.224 20.5999C235.863 20.5362 235.552 20.6638 235.292 20.9829C235.032 21.302 234.838 21.827 234.709 22.5579C234.581 23.2837 234.581 23.8444 234.71 24.2399C234.841 24.6333 235.092 24.8626 235.461 24.9277Z" fill="black"/>
<path d="M230.913 24.7604C230.336 24.6587 229.933 24.3443 229.703 23.8172C229.473 23.2902 229.439 22.5701 229.6 21.6571C229.761 20.7441 230.037 20.0801 230.427 19.6651C230.82 19.2504 231.309 19.0947 231.894 19.1978C232.474 19.3 232.877 19.6144 233.104 20.141C233.332 20.665 233.365 21.3823 233.205 22.2927C233.044 23.2031 232.764 23.8678 232.365 24.2866C231.969 24.7033 231.485 24.8613 230.913 24.7604ZM231.022 24.1449C231.388 24.2096 231.701 24.0783 231.96 23.7511C232.219 23.4238 232.412 22.8986 232.539 22.1754C232.668 21.447 232.663 20.8883 232.525 20.4991C232.391 20.1078 232.144 19.8805 231.785 19.8171C231.423 19.7534 231.112 19.8811 230.853 20.2002C230.593 20.5192 230.398 21.0442 230.269 21.7752C230.141 22.5009 230.142 23.0616 230.27 23.4571C230.402 23.8505 230.652 24.0798 231.022 24.1449Z" fill="black"/>
<path d="M227.48 18.4949L228.103 18.6048L227.148 24.0212L226.491 23.9052L227.317 19.2159L225.818 20.1137L225.944 19.4021L227.48 18.4949Z" fill="black"/>
<path d="M230.007 42.8783C229.43 42.7766 229.027 42.4622 228.797 41.9351C228.567 41.4081 228.533 40.6881 228.694 39.7751C228.855 38.8621 229.131 38.198 229.521 37.783C229.914 37.3684 230.403 37.2126 230.988 37.3157C231.568 37.4179 231.971 37.7323 232.198 38.2589C232.426 38.783 232.459 39.5002 232.299 40.4106C232.138 41.3211 231.858 41.9857 231.459 42.4045C231.063 42.8212 230.579 42.9792 230.007 42.8783ZM230.116 42.2628C230.482 42.3275 230.795 42.1962 231.054 41.869C231.313 41.5417 231.506 41.0165 231.633 40.2933C231.762 39.5649 231.757 39.0062 231.619 38.617C231.485 38.2257 231.238 37.9984 230.879 37.9351C230.517 37.8713 230.206 37.999 229.947 38.3181C229.687 38.6372 229.492 39.1622 229.363 39.8931C229.235 40.6189 229.236 41.1795 229.364 41.575C229.496 41.9685 229.746 42.1977 230.116 42.2628Z" fill="black"/>
<path d="M226.962 41.8813C226.561 42.1173 226.097 42.1889 225.572 42.0962C225.046 42.0035 224.634 41.7775 224.335 41.418C224.039 41.0565 223.934 40.632 224.02 40.1448C224.08 39.8037 224.223 39.5248 224.449 39.3081C224.675 39.0915 224.955 38.953 225.288 38.8928C225.084 38.7432 224.933 38.5579 224.834 38.3369C224.739 38.1138 224.713 37.8791 224.756 37.6329C224.827 37.2328 225.032 36.9306 225.372 36.7261C225.713 36.5191 226.106 36.4549 226.553 36.5336C226.991 36.6109 227.334 36.8049 227.58 37.1155C227.83 37.4265 227.919 37.7808 227.849 38.1783C227.806 38.4245 227.702 38.6363 227.539 38.8137C227.376 38.9886 227.174 39.1117 226.934 39.1831C227.224 39.3558 227.438 39.5826 227.576 39.8635C227.715 40.1418 227.754 40.4515 227.694 40.7926C227.607 41.2824 227.363 41.6453 226.962 41.8813ZM226.15 38.8187C226.409 38.8643 226.642 38.8182 226.848 38.6801C227.058 38.5425 227.184 38.3506 227.228 38.1044C227.27 37.8633 227.216 37.6449 227.065 37.4491C226.918 37.2512 226.715 37.1294 226.456 37.0837C226.191 37.0371 225.956 37.0803 225.75 37.2133C225.545 37.3462 225.42 37.5345 225.377 37.7781C225.334 38.0243 225.386 38.2476 225.533 38.4481C225.682 38.649 225.888 38.7726 226.15 38.8187ZM225.68 41.4807C226.014 41.5395 226.308 41.4896 226.563 41.331C226.821 41.1729 226.979 40.931 227.036 40.6053C227.093 40.2847 227.027 40.0073 226.838 39.773C226.652 39.5392 226.392 39.3929 226.059 39.3342C225.723 39.2749 225.426 39.3231 225.169 39.4787C224.911 39.6342 224.754 39.8723 224.698 40.1929C224.64 40.5186 224.706 40.7998 224.894 41.0367C225.082 41.2735 225.344 41.4215 225.68 41.4807Z" fill="black"/>
<path d="M230.405 27.6418L229.363 33.5506" stroke="black"/>
<path d="M171.338 24.3698C170.761 24.4715 170.275 24.314 169.879 23.8973C169.483 23.4806 169.204 22.8157 169.043 21.9027C168.882 20.9897 168.914 20.2714 169.139 19.7479C169.367 19.2238 169.773 18.9102 170.358 18.8071C170.937 18.7049 171.424 18.8624 171.817 19.2796C172.21 19.6942 172.487 20.3567 172.648 21.2672C172.808 22.1776 172.773 22.8978 172.541 23.4279C172.311 23.955 171.91 24.2689 171.338 24.3698ZM171.23 23.7543C171.597 23.6896 171.846 23.4593 171.977 23.0633C172.108 22.6673 172.11 22.1077 171.982 21.3845C171.854 20.6562 171.658 20.1327 171.396 19.814C171.135 19.4924 170.826 19.3632 170.467 19.4265C170.105 19.4903 169.857 19.7165 169.722 20.1052C169.587 20.494 169.584 21.0538 169.712 21.7847C169.84 22.5105 170.032 23.0372 170.289 23.3649C170.547 23.6896 170.861 23.8194 171.23 23.7543Z" fill="black"/>
<path d="M168.136 24.4743C167.84 24.8333 167.429 25.0592 166.903 25.1519C166.377 25.2446 165.912 25.1732 165.509 24.9376C165.107 24.6991 164.863 24.3361 164.777 23.8489C164.717 23.5078 164.756 23.1968 164.894 22.9159C165.033 22.635 165.248 22.4093 165.54 22.2387C165.298 22.1678 165.092 22.0454 164.924 21.8714C164.758 21.6944 164.653 21.4828 164.61 21.2366C164.54 20.8366 164.629 20.4823 164.879 20.1738C165.128 19.8628 165.476 19.6679 165.922 19.5892C166.361 19.5119 166.749 19.577 167.087 19.7845C167.428 19.9915 167.633 20.2938 167.703 20.6913C167.746 20.9375 167.722 21.1719 167.629 21.3945C167.535 21.6146 167.388 21.7993 167.187 21.9484C167.518 22.0117 167.797 22.1516 168.022 22.3683C168.248 22.5824 168.391 22.86 168.451 23.2011C168.537 23.6909 168.432 24.1153 168.136 24.4743ZM166.325 21.8743C166.584 21.8286 166.787 21.7056 166.934 21.5051C167.084 21.3042 167.137 21.0806 167.094 20.8344C167.051 20.5933 166.926 20.4066 166.717 20.2741C166.511 20.1386 166.278 20.0937 166.019 20.1394C165.755 20.1859 165.549 20.3069 165.401 20.5022C165.253 20.6976 165.2 20.9171 165.243 21.1607C165.287 21.4069 165.412 21.599 165.619 21.7371C165.828 21.8747 166.063 21.9204 166.325 21.8743ZM166.794 24.5364C167.128 24.4776 167.387 24.33 167.573 24.0936C167.761 23.8568 167.827 23.5756 167.769 23.2499C167.713 22.9293 167.556 22.6912 167.298 22.5356C167.043 22.3796 166.749 22.331 166.416 22.3898C166.08 22.449 165.818 22.5958 165.629 22.83C165.44 23.0643 165.374 23.3417 165.43 23.6623C165.488 23.988 165.646 24.2299 165.904 24.388C166.161 24.5462 166.458 24.5956 166.794 24.5364Z" fill="black"/>
<path d="M176.684 41.7049C176.107 41.8067 175.62 41.6492 175.224 41.2325C174.828 40.8157 174.549 40.1509 174.388 39.2379C174.227 38.3249 174.259 37.6066 174.484 37.083C174.712 36.559 175.118 36.2454 175.703 36.1423C176.283 36.0401 176.769 36.1976 177.163 36.6147C177.556 37.0293 177.832 37.6919 177.993 38.6023C178.154 39.5127 178.118 40.233 177.886 40.7631C177.656 41.2901 177.256 41.6041 176.684 41.7049ZM176.575 41.0894C176.942 41.0247 177.191 40.7944 177.322 40.3984C177.453 40.0025 177.455 39.4429 177.327 38.7197C177.199 37.9913 177.004 37.4678 176.741 37.1492C176.481 36.8275 176.171 36.6983 175.812 36.7616C175.451 36.8254 175.202 37.0517 175.067 37.4404C174.932 37.8291 174.929 38.3889 175.058 39.1199C175.186 39.8456 175.378 40.3724 175.634 40.7001C175.892 41.0247 176.206 41.1545 176.575 41.0894Z" fill="black"/>
<path d="M172.244 42.4877C171.667 42.5894 171.181 42.432 170.785 42.0152C170.389 41.5985 170.11 40.9337 169.949 40.0207C169.788 39.1077 169.82 38.3894 170.045 37.8658C170.273 37.3417 170.679 37.0282 171.264 36.9251C171.843 36.8229 172.33 36.9804 172.723 37.3975C173.116 37.8121 173.393 38.4746 173.554 39.3851C173.714 40.2955 173.679 41.0158 173.447 41.5458C173.217 42.0729 172.816 42.3868 172.244 42.4877ZM172.136 41.8722C172.503 41.8075 172.752 41.5772 172.883 41.1812C173.014 40.7852 173.016 40.2256 172.888 39.5024C172.76 38.7741 172.564 38.2506 172.302 37.9319C172.042 37.6103 171.732 37.4811 171.373 37.5444C171.011 37.6082 170.763 37.8344 170.628 38.2232C170.493 38.6119 170.49 39.1717 170.618 39.9026C170.746 40.6284 170.939 41.1552 171.195 41.4828C171.453 41.8075 171.767 41.9373 172.136 41.8722Z" fill="black"/>
<path d="M166.876 37.7741L167.499 37.6643L168.454 43.0807L167.796 43.1967L166.969 38.5073L165.868 39.8637L165.742 39.1521L166.876 37.7741Z" fill="black"/>
<path d="M169.627 27.6425L170.669 33.5513" stroke="black"/>
<path d="M141.281 32.018C140.73 32.2184 140.224 32.1478 139.761 31.8062C139.299 31.4646 138.909 30.8582 138.592 29.987C138.275 29.1158 138.182 28.4029 138.312 27.8482C138.445 27.2926 138.791 26.9132 139.349 26.7102C139.902 26.5089 140.408 26.5795 140.868 26.922C141.327 27.262 141.715 27.8664 142.031 28.7351C142.347 29.6039 142.437 30.3194 142.301 30.8816C142.167 31.4406 141.826 31.8193 141.281 32.018ZM141.067 31.4307C141.417 31.3033 141.622 31.0332 141.682 30.6205C141.743 30.2078 141.647 29.6564 141.396 28.9663C141.143 28.2713 140.86 27.7897 140.546 27.5215C140.234 27.2499 139.906 27.1765 139.564 27.3011C139.219 27.4267 139.014 27.6927 138.948 28.099C138.883 28.5052 138.977 29.0571 139.231 29.7545C139.483 30.4471 139.763 30.9324 140.072 31.2107C140.383 31.4856 140.715 31.5589 141.067 31.4307Z" fill="black"/>
<path d="M133.38 28.9616L136.915 27.675L137.109 28.2073L136.27 33.7625L135.544 34.027L136.424 28.5188L133.594 29.5489L133.38 28.9616Z" fill="black"/>
<path d="M149.555 48.1615C149.004 48.362 148.498 48.2913 148.035 47.9497C147.573 47.6081 147.183 47.0017 146.866 46.1306C146.549 45.2594 146.456 44.5465 146.587 43.9918C146.72 43.4362 147.065 43.0568 147.623 42.8538C148.176 42.6525 148.683 42.7231 149.143 43.0656C149.602 43.4056 149.989 44.01 150.306 44.8787C150.622 45.7475 150.712 46.4629 150.576 47.0252C150.441 47.5842 150.101 47.9629 149.555 48.1615ZM149.341 47.5742C149.691 47.4469 149.896 47.1768 149.957 46.7641C150.017 46.3514 149.922 45.7999 149.671 45.1099C149.418 44.4149 149.134 43.9333 148.82 43.665C148.508 43.3935 148.181 43.32 147.838 43.4447C147.493 43.5703 147.288 43.8363 147.222 44.2425C147.157 44.6488 147.251 45.2007 147.505 45.8981C147.757 46.5906 148.038 47.076 148.347 47.3543C148.657 47.6292 148.989 47.7025 149.341 47.5742Z" fill="black"/>
<path d="M143.449 44.4519L144.044 44.2355L145.925 49.4038L145.297 49.6322L143.669 45.1577L142.819 46.6848L142.572 46.0057L143.449 44.4519Z" fill="black"/>
<path d="M139.213 45.9936L139.808 45.7772L141.689 50.9455L141.061 51.174L139.433 46.6994L138.584 48.2265L138.336 47.5474L139.213 45.9936Z" fill="black"/>
<path d="M140.163 35.5382L142.215 41.1763" stroke="black"/>
<path d="M113.008 44.7687C112.501 45.0617 111.99 45.0801 111.475 44.824C110.96 44.5679 110.471 44.0384 110.007 43.2355C109.544 42.4326 109.328 41.7467 109.361 41.1777C109.395 40.6075 109.67 40.1739 110.184 39.877C110.694 39.5827 111.205 39.5643 111.717 39.8217C112.228 40.0769 112.715 40.6048 113.177 41.4054C113.639 42.206 113.852 42.895 113.816 43.4724C113.78 44.0462 113.511 44.4783 113.008 44.7687ZM112.696 44.2274C113.018 44.0412 113.173 43.7397 113.161 43.3227C113.149 42.9058 112.959 42.3793 112.592 41.7433C112.222 41.1028 111.859 40.6777 111.504 40.4681C111.149 40.2548 110.814 40.2394 110.498 40.4217C110.18 40.6053 110.024 40.9028 110.03 41.3143C110.036 41.7258 110.225 42.2529 110.596 42.8956C110.965 43.5339 111.325 43.9632 111.678 44.1835C112.032 44.4003 112.371 44.4149 112.696 44.2274Z" fill="black"/>
<path d="M109.795 44.4225C109.983 44.7379 110.076 45.0649 110.073 45.4034C110.07 45.7419 109.982 46.0511 109.81 46.331C109.638 46.6108 109.402 46.8373 109.102 47.0105C108.63 47.2826 108.15 47.3617 107.66 47.2476C107.169 47.1312 106.787 46.8373 106.515 46.366C106.286 45.9691 106.203 45.5085 106.267 44.9843L106.665 41.994L107.356 41.5956L106.996 44.027C107.107 43.9119 107.233 43.8133 107.375 43.7312C107.637 43.5802 107.916 43.5005 108.211 43.492C108.507 43.4836 108.799 43.5589 109.086 43.7178C109.372 43.8745 109.608 44.1094 109.795 44.4225ZM108.774 46.4737C109.092 46.2901 109.294 46.0393 109.381 45.7214C109.469 45.4 109.415 45.0736 109.218 44.7425C109.018 44.4068 108.759 44.2001 108.44 44.1223C108.12 44.0424 107.804 44.0929 107.49 44.2739C107.177 44.4549 106.98 44.714 106.901 45.0512C106.821 45.3862 106.874 45.7092 107.059 46.02C107.257 46.357 107.511 46.5634 107.823 46.6392C108.137 46.7138 108.453 46.6586 108.774 46.4737Z" fill="black"/>
<path d="M123.96 59.2302C123.453 59.5232 122.941 59.5416 122.427 59.2855C121.912 59.0294 121.423 58.4999 120.959 57.697C120.496 56.8941 120.28 56.2082 120.313 55.6392C120.347 55.069 120.622 54.6354 121.136 54.3385C121.645 54.0443 122.157 54.0258 122.669 54.2833C123.18 54.5384 123.667 55.0663 124.129 55.8669C124.591 56.6676 124.804 57.3566 124.768 57.9339C124.732 58.5078 124.463 58.9399 123.96 59.2302ZM123.647 58.689C123.97 58.5028 124.125 58.2012 124.113 57.7842C124.101 57.3673 123.911 56.8408 123.544 56.2048C123.174 55.5643 122.811 55.1392 122.456 54.9296C122.101 54.7164 121.766 54.7009 121.45 54.8832C121.132 55.0668 120.976 55.3643 120.982 55.7758C120.988 56.1873 121.177 56.7144 121.548 57.3572C121.916 57.9954 122.277 58.4247 122.63 58.645C122.983 58.8618 123.323 58.8765 123.647 58.689Z" fill="black"/>
<path d="M118.937 61.3273L121.309 59.9581L121.619 60.496L118.405 62.3515L118.149 61.9083L118.919 58.8345C119.004 58.5027 119.038 58.2317 119.022 58.0215C119.006 57.8113 118.951 57.625 118.857 57.4626C118.701 57.192 118.5 57.0285 118.254 56.9721C118.007 56.9134 117.755 56.9577 117.501 57.1048C117.228 57.2624 117.058 57.4703 116.99 57.7287C116.924 57.9836 116.991 58.2846 117.192 58.6319L117.395 58.9838L116.778 59.2675L116.608 58.9732C116.323 58.4793 116.24 58.0252 116.358 57.6109C116.476 57.1943 116.759 56.8565 117.208 56.5974C117.627 56.3552 118.041 56.2773 118.448 56.3636C118.858 56.4487 119.184 56.6999 119.425 57.1171C119.568 57.3652 119.647 57.6265 119.661 57.9009C119.676 58.1719 119.636 58.4986 119.541 58.8812L118.937 61.3273Z" fill="black"/>
<path d="M113.399 58.8911L113.947 58.5747L116.697 63.3378L116.118 63.6718L113.738 59.548L113.166 61.1994L112.805 60.5735L113.399 58.8911Z" fill="black"/>
<path d="M112.519 48.4294L115.519 53.6256" stroke="black"/>
<path d="M87.3793 62.2353C86.9305 62.6119 86.4304 62.7188 85.879 62.556C85.3276 62.3931 84.754 61.9566 84.158 61.2464C83.5621 60.5362 83.2307 59.8982 83.1638 59.3322C83.0988 58.7646 83.2938 58.29 83.7486 57.9083C84.1995 57.53 84.6996 57.4231 85.249 57.5876C85.7967 57.7502 86.3676 58.1855 86.9619 58.8937C87.5561 59.6019 87.8854 60.2435 87.9497 60.8184C88.0143 61.3897 87.8242 61.862 87.3793 62.2353ZM86.9776 61.7565C87.2629 61.5171 87.3633 61.1932 87.2789 60.7847C87.1945 60.3762 86.9163 59.8907 86.4442 59.3281C85.9688 58.7615 85.5378 58.4059 85.1512 58.2612C84.7649 58.1128 84.4321 58.1558 84.1529 58.3901C83.8716 58.6261 83.7696 58.9462 83.847 59.3504C83.9244 59.7546 84.2016 60.241 84.6787 60.8095C85.1524 61.3741 85.5821 61.7342 85.9678 61.89C86.3537 62.042 86.6903 61.9976 86.9776 61.7565Z" fill="black"/>
<path d="M81.5048 62.4478C82.0175 62.0176 82.5001 61.8149 82.9527 61.8397C83.4036 61.8625 83.8064 62.0854 84.1613 62.5083C84.5128 62.9272 84.6693 63.379 84.6306 63.8636C84.5922 64.3445 84.3625 64.7616 83.9416 65.1148C83.7561 65.2705 83.5561 65.3907 83.3416 65.4754C83.1275 65.5565 82.9103 65.5994 82.6899 65.6042C82.4698 65.6053 82.2498 65.5537 82.0297 65.4494C81.8116 65.3434 81.6147 65.1857 81.4389 64.9763C81.3904 64.9184 81.3351 64.8424 81.2731 64.7482L81.7651 64.2589C81.8462 64.388 81.9043 64.4735 81.9395 64.5154C82.0633 64.663 82.1979 64.7728 82.3432 64.8446C82.4905 64.9148 82.6346 64.9469 82.7757 64.9407C82.915 64.9326 83.047 64.9034 83.1715 64.8533C83.298 64.8016 83.4161 64.7296 83.5259 64.6376C83.7972 64.4099 83.9426 64.1417 83.9623 63.8329C83.9839 63.5224 83.8817 63.2325 83.6557 62.9631C83.4197 62.6819 83.1481 62.5324 82.841 62.5148C82.5358 62.4955 82.1987 62.6407 81.8296 62.9503L80.7644 63.8442L79.3876 61.6747L81.596 59.8217L82.0002 60.3035L80.2287 61.7899L80.9423 62.9198L81.5048 62.4478Z" fill="black"/>
<path d="M100.676 74.5753C100.227 74.9519 99.7272 75.0588 99.1758 74.896C98.6244 74.7332 98.0507 74.2966 97.4548 73.5864C96.8589 72.8763 96.5275 72.2382 96.4605 71.6723C96.3956 71.1046 96.5905 70.63 97.0454 70.2484C97.4962 69.87 97.9964 69.7632 98.5457 69.9277C99.0934 70.0902 99.6644 70.5256 100.259 71.2337C100.853 71.9419 101.182 72.5835 101.246 73.1585C101.311 73.7297 101.121 74.202 100.676 74.5753ZM100.274 74.0965C100.56 73.8572 100.66 73.5332 100.576 73.1247C100.491 72.7162 100.213 72.2307 99.741 71.6681C99.2656 71.1016 98.8346 70.7459 98.448 70.6012C98.0617 70.4528 97.7289 70.4958 97.4496 70.7301C97.1684 70.9662 97.0664 71.2863 97.1438 71.6904C97.2212 72.0946 97.4984 72.581 97.9755 73.1496C98.4492 73.7141 98.8789 74.0743 99.2645 74.23C99.6505 74.3821 99.9871 74.3376 100.274 74.0965Z" fill="black"/>
<path d="M97.193 77.498C96.2574 78.283 95.3703 78.1759 94.5316 77.1764L95.0357 76.7076C95.332 77.0607 95.6196 77.2697 95.8986 77.3348C96.1775 77.3999 96.4776 77.2977 96.7988 77.0282C97.0681 76.8022 97.2219 76.5439 97.2603 76.2534C97.3007 75.9612 97.2179 75.6924 97.012 75.447C96.8028 75.1976 96.5562 75.0679 96.2725 75.0579C95.9907 75.0462 95.7291 75.1416 95.4877 75.3441L95.2782 75.5199L94.9091 75.08L95.1126 74.9093C95.2922 74.7586 95.3914 74.5649 95.4102 74.3281C95.4291 74.0913 95.359 73.8781 95.2 73.6886C95.041 73.4991 94.8434 73.4014 94.6073 73.3955C94.3712 73.3897 94.1505 73.473 93.945 73.6454C93.8133 73.7558 93.7182 73.8714 93.6596 73.9919C93.603 74.1108 93.584 74.2321 93.6028 74.3557C93.6199 74.4774 93.6585 74.5963 93.7185 74.7124C93.7786 74.8286 93.8631 74.9515 93.9719 75.0812L93.4301 75.5052C93.0786 75.0862 92.913 74.6762 92.9333 74.275C92.9556 73.8721 93.1613 73.5075 93.5503 73.1811C93.8954 72.8915 94.2689 72.7532 94.6707 72.7661C95.0745 72.7774 95.4045 72.9357 95.6606 73.2409C95.8347 73.4484 95.932 73.6778 95.9525 73.9291C95.9731 74.1805 95.9278 74.4122 95.8169 74.6243C96.1168 74.4916 96.4223 74.4545 96.7332 74.5132C97.0442 74.5718 97.3194 74.7437 97.5587 75.029C97.8768 75.408 97.9991 75.8273 97.9256 76.2866C97.8541 76.7443 97.6099 77.1481 97.193 77.498Z" fill="black"/>
<path d="M90.2166 76.0752L90.7014 75.6685L94.2367 79.8817L93.725 80.3111L90.6643 76.6634L90.3885 78.3888L89.924 77.8352L90.2166 76.0752Z" fill="black"/>
<path d="M87.5334 65.9254L91.3901 70.5216" stroke="black"/>
<path d="M65.1734 83.8869C64.7968 84.3357 64.3228 84.5278 63.7515 84.4632C63.1802 84.3986 62.5395 84.0683 61.8293 83.4724C61.1191 82.8765 60.6819 82.3057 60.5177 81.76C60.3552 81.2122 60.4648 80.711 60.8464 80.2561C61.2247 79.8053 61.6987 79.6132 62.2683 79.6798C62.8359 79.7447 63.4738 80.0743 64.182 80.6686C64.8902 81.2628 65.3259 81.8375 65.489 82.3925C65.6519 82.9439 65.5467 83.442 65.1734 83.8869ZM64.6946 83.4851C64.934 83.1999 64.9766 82.8634 64.8226 82.4758C64.6685 82.0881 64.3102 81.6583 63.7476 81.1862C63.1811 80.7108 62.6949 80.4355 62.289 80.3601C61.8828 80.281 61.5625 80.3811 61.3282 80.6604C61.0922 80.9417 61.0474 81.2746 61.1938 81.6592C61.3402 82.0438 61.6977 82.4747 62.2662 82.9517C62.8308 83.4255 63.3165 83.7055 63.7233 83.7919C64.1298 83.8747 64.4536 83.7724 64.6946 83.4851Z" fill="black"/>
<path d="M62.2346 84.5876L62.7104 84.9868L62.1656 85.6362L63.0124 86.3467L62.578 86.8644L61.7312 86.1538L60.0388 88.1707L59.5601 87.769L58.1438 83.5924L58.7991 82.8114L61.6898 85.2369L62.2346 84.5876ZM60.0125 87.2358L61.2554 85.7546L58.7448 83.648L60.0125 87.2358Z" fill="black"/>
<path d="M80.411 93.7304C80.0343 94.1793 79.5604 94.3714 78.9891 94.3068C78.4178 94.2422 77.7771 93.9119 77.0669 93.316C76.3567 92.7201 75.9195 92.1492 75.7553 91.6035C75.5928 91.0558 75.7024 90.5545 76.084 90.0997C76.4623 89.6488 76.9363 89.4567 77.5059 89.5233C78.0735 89.5883 78.7114 89.9179 79.4196 90.5121C80.1278 91.1064 80.5635 91.681 80.7266 92.2361C80.8895 92.7875 80.7843 93.2856 80.411 93.7304ZM79.9322 93.3287C80.1716 93.0434 80.2142 92.707 80.0601 92.3193C79.9061 91.9317 79.5478 91.5019 78.9852 91.0298C78.4187 90.5544 77.9324 90.279 77.5266 90.2036C77.1204 90.1246 76.8001 90.2247 76.5658 90.5039C76.3298 90.7852 76.2849 91.1182 76.4314 91.5028C76.5778 91.8874 76.9352 92.3182 77.5038 92.7953C78.0683 93.269 78.554 93.5491 78.9609 93.6355C79.3674 93.7182 79.6911 93.616 79.9322 93.3287Z" fill="black"/>
<path d="M77.4722 94.4312L77.948 94.8304L77.4032 95.4798L78.25 96.1903L77.8156 96.708L76.9688 95.9974L75.2764 98.0143L74.7977 97.6126L73.3814 93.436L74.0368 92.655L76.9274 95.0805L77.4722 94.4312ZM75.2501 97.0794L76.493 95.5982L73.9824 93.4916L75.2501 97.0794Z" fill="black"/>
<path d="M70.3709 97.0238L70.7776 96.5391L74.9909 100.074L74.5615 100.586L70.9138 97.5253L70.9419 99.2724L70.3883 98.8079L70.3709 97.0238Z" fill="black"/>
<path d="M65.9659 87.4941L70.5621 91.3508" stroke="black"/>
<path d="M47.0654 109.064C46.7724 109.572 46.339 109.843 45.7652 109.879C45.1914 109.914 44.503 109.7 43.7001 109.237C42.8972 108.773 42.3676 108.287 42.1111 107.778C41.8559 107.267 41.8768 106.754 42.1737 106.24C42.4679 105.73 42.9013 105.459 43.4739 105.426C44.0441 105.391 44.7296 105.605 45.5302 106.067C46.3308 106.529 46.8597 107.02 47.1167 107.538C47.3729 108.053 47.3557 108.561 47.0654 109.064ZM46.5241 108.752C46.7103 108.429 46.6939 108.091 46.4748 107.736C46.2558 107.381 45.8283 107.019 45.1923 106.652C44.5518 106.283 44.0252 106.096 43.6124 106.092C43.1986 106.085 42.9006 106.239 42.7183 106.555C42.5347 106.873 42.5484 107.208 42.7594 107.562C42.9704 107.915 43.3972 108.277 44.04 108.648C44.6782 109.017 45.2052 109.208 45.6208 109.223C46.0355 109.234 46.3366 109.077 46.5241 108.752Z" fill="black"/>
<path d="M44.7919 113.002C44.1813 114.06 43.311 114.262 42.1811 113.61L42.4944 112.997C42.8936 113.228 43.2354 113.326 43.5198 113.291C43.8042 113.257 44.0512 113.058 44.2608 112.695C44.4366 112.391 44.4928 112.096 44.4295 111.809C44.3675 111.521 44.1978 111.297 43.9204 111.137C43.6384 110.974 43.3624 110.936 43.0923 111.024C42.8235 111.109 42.6104 111.288 42.4528 111.561L42.3161 111.798L41.8188 111.511L41.9516 111.281C42.0688 111.078 42.0958 110.862 42.0325 110.633C41.9692 110.404 41.8305 110.228 41.6162 110.104C41.402 109.98 41.1829 109.956 40.9591 110.031C40.7352 110.107 40.5562 110.26 40.4221 110.493C40.3362 110.642 40.2863 110.783 40.2725 110.916C40.2599 111.047 40.2836 111.167 40.3435 111.277C40.4012 111.386 40.4781 111.484 40.5743 111.573C40.6705 111.661 40.7919 111.748 40.9385 111.833L40.5744 112.416C40.1008 112.143 39.8049 111.814 39.6868 111.43C39.57 111.044 39.6385 110.631 39.8924 110.191C40.1177 109.801 40.4213 109.543 40.8034 109.418C41.1867 109.291 41.5509 109.327 41.896 109.526C42.1305 109.661 42.3004 109.844 42.4057 110.073C42.5109 110.302 42.5477 110.535 42.5159 110.772C42.7524 110.545 43.0268 110.406 43.339 110.354C43.6513 110.303 43.9687 110.371 44.2912 110.557C44.7197 110.804 44.978 111.156 45.066 111.613C45.1554 112.068 45.0641 112.531 44.7919 113.002Z" fill="black"/>
<path d="M63.7808 116.112C63.4878 116.62 63.0544 116.891 62.4806 116.927C61.9068 116.962 61.2184 116.748 60.4155 116.285C59.6127 115.821 59.083 115.335 58.8265 114.826C58.5714 114.315 58.5922 113.802 58.8891 113.288C59.1834 112.778 59.6168 112.507 60.1893 112.474C60.7596 112.439 61.445 112.653 62.2456 113.115C63.0462 113.577 63.5751 114.068 63.8322 114.586C64.0883 115.101 64.0712 115.609 63.7808 116.112ZM63.2395 115.8C63.4257 115.477 63.4093 115.139 63.1903 114.784C62.9712 114.429 62.5437 114.068 61.9077 113.7C61.2672 113.331 60.7406 113.144 60.3278 113.14C59.9141 113.133 59.616 113.287 59.4337 113.603C59.2502 113.921 59.2638 114.256 59.4748 114.61C59.6858 114.963 60.1126 115.325 60.7554 115.696C61.3936 116.065 61.9206 116.256 62.3362 116.271C62.7509 116.282 63.052 116.125 63.2395 115.8Z" fill="black"/>
<path d="M58.3332 118.321C58.6679 117.742 59.0521 117.386 59.4858 117.255C59.9173 117.122 60.3721 117.193 60.8502 117.47C61.3238 117.743 61.6253 118.114 61.7547 118.583C61.8831 119.048 61.81 119.518 61.5352 119.994C61.4141 120.204 61.2673 120.385 61.0948 120.538C60.9213 120.688 60.7319 120.802 60.5264 120.882C60.32 120.958 60.0955 120.985 59.853 120.962C59.6119 120.937 59.3729 120.857 59.1361 120.72C59.0707 120.682 58.9927 120.63 58.9023 120.562L59.1972 119.934C59.3176 120.028 59.4015 120.088 59.4488 120.116C59.6157 120.212 59.7797 120.269 59.9408 120.287C60.1032 120.302 60.2496 120.283 60.3801 120.229C60.5082 120.174 60.6222 120.101 60.7221 120.012C60.8233 119.92 60.9097 119.812 60.9813 119.688C61.1584 119.381 61.2034 119.079 61.1162 118.782C61.0303 118.483 60.8351 118.246 60.5307 118.07C60.2127 117.886 59.9063 117.839 59.6117 117.927C59.3183 118.013 59.0512 118.265 58.8103 118.682L58.115 119.887L56.0793 118.319L57.5207 115.822L58.0653 116.137L56.9091 118.14L57.9661 118.957L58.3332 118.321Z" fill="black"/>
<path d="M54.4651 121.099L54.7815 120.551L59.5446 123.301L59.2107 123.88L55.0869 121.499L55.4179 123.214L54.7921 122.853L54.4651 121.099Z" fill="black"/>
<path d="M48.4722 112.479L53.6684 115.479" stroke="black"/>
<path d="M33.6042 137.005C33.4038 137.555 33.0241 137.898 32.4652 138.032C31.9063 138.167 31.1912 138.076 30.3201 137.759C29.4489 137.442 28.8428 137.055 28.5019 136.598C28.1618 136.139 28.0933 135.631 28.2964 135.073C28.4977 134.52 28.8774 134.177 29.4354 134.045C29.991 133.912 30.7032 134.003 31.5719 134.319C32.4406 134.636 33.0466 135.027 33.3897 135.492C33.7313 135.955 33.8028 136.459 33.6042 137.005ZM33.0169 136.791C33.1443 136.441 33.0693 136.11 32.7919 135.799C32.5146 135.487 32.0309 135.206 31.3408 134.954C30.6458 134.702 30.0947 134.609 29.6875 134.677C29.2788 134.742 29.0121 134.945 28.8874 135.288C28.7618 135.633 28.8336 135.961 29.1027 136.272C29.3718 136.584 29.8551 136.866 30.5525 137.12C31.2451 137.372 31.7972 137.469 32.2091 137.411C32.6194 137.35 32.8887 137.143 33.0169 136.791Z" fill="black"/>
<path d="M31.1045 141.84L32.041 139.266L32.6247 139.479L31.3554 142.966L30.8746 142.791L29.4881 139.942C29.34 139.633 29.1922 139.403 29.0448 139.253C28.8973 139.102 28.7355 138.995 28.5593 138.93C28.2656 138.824 28.0064 138.828 27.7817 138.943C27.5545 139.057 27.3906 139.252 27.2899 139.528C27.1821 139.825 27.1855 140.093 27.3 140.334C27.413 140.572 27.6579 140.76 28.0347 140.897L28.4165 141.036L28.1266 141.65L27.8073 141.533C27.2714 141.338 26.9157 141.044 26.7403 140.65C26.5624 140.256 26.5621 139.815 26.7393 139.328C26.905 138.873 27.1717 138.547 27.5396 138.351C27.9083 138.153 28.319 138.136 28.7717 138.301C29.0409 138.399 29.2691 138.549 29.4564 138.75C29.6421 138.948 29.8216 139.224 29.9948 139.578L31.1045 141.84Z" fill="black"/>
<path d="M51.2896 141.043C51.0892 141.594 50.7095 141.936 50.1506 142.071C49.5916 142.206 48.8766 142.114 48.0054 141.797C47.1342 141.48 46.5282 141.093 46.1872 140.637C45.8472 140.178 45.7787 139.669 45.9818 139.111C46.1831 138.558 46.5627 138.215 47.1208 138.083C47.6764 137.95 48.3885 138.042 49.2573 138.358C50.126 138.674 50.7319 139.065 51.0751 139.531C51.4167 139.993 51.4882 140.497 51.2896 141.043ZM50.7023 140.829C50.8296 140.479 50.7546 140.149 50.4773 139.837C50.1999 139.525 49.7162 139.244 49.0261 138.993C48.3312 138.74 47.7801 138.647 47.3729 138.715C46.9642 138.78 46.6975 138.984 46.5728 139.326C46.4472 139.671 46.5189 139.999 46.7881 140.311C47.0572 140.622 47.5405 140.905 48.2379 141.159C48.9304 141.411 49.4826 141.508 49.8945 141.45C50.3047 141.388 50.574 141.182 50.7023 140.829Z" fill="black"/>
<path d="M48.6058 142.843C48.9527 142.964 49.2337 143.155 49.449 143.416C49.6643 143.677 49.7959 143.97 49.8439 144.295C49.8919 144.62 49.8566 144.946 49.7382 145.271C49.552 145.783 49.2346 146.152 48.786 146.38C48.335 146.606 47.8537 146.626 47.3423 146.44C46.9116 146.283 46.5524 145.984 46.2646 145.541L44.6474 142.994L44.9199 142.245L46.2072 144.339C46.2181 144.18 46.2517 144.023 46.3078 143.869C46.4111 143.585 46.5734 143.345 46.7946 143.148C47.0158 142.952 47.2875 142.822 47.6097 142.759C47.9294 142.695 48.2615 142.723 48.6058 142.843ZM49.1418 145.071C49.2674 144.726 49.2614 144.403 49.1238 144.104C48.9846 143.801 48.733 143.586 48.369 143.459C48.0002 143.331 47.6688 143.339 47.3748 143.484C47.0785 143.628 46.8684 143.871 46.7445 144.211C46.6207 144.551 46.637 144.875 46.7933 145.185C46.9472 145.493 47.1951 145.706 47.537 145.825C47.905 145.956 48.2326 145.951 48.5199 145.809C48.808 145.664 49.0154 145.418 49.1418 145.071Z" fill="black"/>
<path d="M42.9814 147.572L43.1978 146.977L48.3661 148.858L48.1376 149.486L43.6631 147.857L44.287 149.489L43.608 149.242L42.9814 147.572Z" fill="black"/>
<path d="M35.5827 140.123L41.2208 142.175" stroke="black"/>
<path d="M25.199 166.858C25.0972 167.435 24.7828 167.839 24.2558 168.068C23.7287 168.298 23.0087 168.332 22.0957 168.171C21.1827 168.01 20.5187 167.735 20.1036 167.344C19.689 166.951 19.5333 166.462 19.6364 165.878C19.7386 165.298 20.053 164.895 20.5796 164.667C21.1036 164.44 21.8208 164.406 22.7313 164.567C23.6417 164.727 24.3063 165.007 24.7252 165.406C25.1419 165.802 25.2998 166.286 25.199 166.858ZM24.5835 166.75C24.6482 166.383 24.5169 166.07 24.1896 165.812C23.8624 165.553 23.3372 165.36 22.6139 165.232C21.8856 165.104 21.3268 165.109 20.9376 165.246C20.5463 165.381 20.319 165.628 20.2557 165.987C20.192 166.348 20.3196 166.659 20.6387 166.919C20.9578 167.179 21.4828 167.373 22.2137 167.502C22.9395 167.63 23.5002 167.63 23.8957 167.501C24.2891 167.37 24.5184 167.119 24.5835 166.75Z" fill="black"/>
<path d="M18.9335 170.291L19.0434 169.668L24.4598 170.623L24.3438 171.281L19.6544 170.454L20.5523 171.953L19.8406 171.828L18.9335 170.291Z" fill="black"/>
<path d="M43.3169 167.764C43.2152 168.341 42.9008 168.745 42.3737 168.974C41.8466 169.204 41.1266 169.238 40.2136 169.077C39.3006 168.916 38.6366 168.641 38.2215 168.25C37.8069 167.857 37.6512 167.368 37.7543 166.784C37.8565 166.204 38.1709 165.801 38.6975 165.573C39.2215 165.346 39.9388 165.312 40.8492 165.473C41.7596 165.633 42.4243 165.913 42.8431 166.312C43.2598 166.708 43.4178 167.192 43.3169 167.764ZM42.7014 167.656C42.7661 167.289 42.6348 166.976 42.3075 166.718C41.9803 166.459 41.4551 166.266 40.7319 166.138C40.0035 166.01 39.4447 166.015 39.0556 166.152C38.6643 166.287 38.4369 166.534 38.3736 166.893C38.3099 167.254 38.4375 167.565 38.7566 167.825C39.0757 168.085 39.6007 168.279 40.3316 168.408C41.0574 168.536 41.6181 168.536 42.0136 168.407C42.407 168.276 42.6363 168.025 42.7014 167.656Z" fill="black"/>
<path d="M36.7197 173.078L37.3729 169.374L37.9307 169.472L42.3227 172.976L42.1884 173.737L37.8582 170.221L37.3352 173.187L36.7197 173.078Z" fill="black"/>
<path d="M36.2686 175.637L36.3785 175.013L41.7949 175.968L41.6789 176.626L36.9896 175.799L37.8874 177.298L37.1758 177.173L36.2686 175.637Z" fill="black"/>
<path d="M27.6889 169.586L33.5978 170.628" stroke="black"/>
<path opacity="0.9" d="M205.135 35.1855C203.67 35.1855 202.54 34.5866 201.746 33.3887C200.952 32.1908 200.555 30.4329 200.555 28.1152C200.555 25.7975 200.945 24.043 201.727 22.8516C202.514 21.6602 203.65 21.0645 205.135 21.0645C206.606 21.0645 207.736 21.6634 208.523 22.8613C209.311 24.0527 209.705 25.804 209.705 28.1152C209.705 30.4264 209.305 32.1842 208.504 33.3887C207.71 34.5866 206.587 35.1855 205.135 35.1855ZM205.135 33.623C206.066 33.623 206.779 33.1641 207.273 32.2461C207.768 31.3281 208.016 29.9512 208.016 28.1152C208.016 26.2663 207.762 24.8926 207.254 23.9941C206.753 23.0892 206.046 22.6367 205.135 22.6367C204.217 22.6367 203.507 23.0859 203.006 23.9844C202.505 24.8828 202.254 26.2598 202.254 28.1152C202.254 29.9577 202.498 31.3379 202.986 32.2559C203.481 33.1673 204.197 33.623 205.135 33.623Z" fill="black"/>
<path opacity="0.9" d="M193.836 21.0938C195.19 21.0938 196.326 21.5267 197.244 22.3926C198.169 23.252 198.631 24.362 198.631 25.7227C198.631 26.862 198.23 27.9622 197.43 29.0234L192.83 35H190.809L194.607 30.2148C194.243 30.3125 193.859 30.3613 193.455 30.3613C192.706 30.3613 192.007 30.1855 191.355 29.834C190.711 29.4759 190.177 28.9486 189.754 28.252C189.331 27.5488 189.113 26.7448 189.1 25.8398C189.093 25.1432 189.21 24.4987 189.451 23.9062C189.699 23.3073 190.037 22.806 190.467 22.4023C190.896 21.9922 191.401 21.6732 191.98 21.4453C192.566 21.2109 193.185 21.0938 193.836 21.0938ZM191.648 28.1738C192.247 28.7467 192.999 29.0332 193.904 29.0332C194.809 29.0332 195.555 28.7207 196.141 28.0957C196.733 27.4642 197.023 26.696 197.01 25.791C196.997 24.821 196.701 24.0592 196.121 23.5059C195.542 22.9525 194.793 22.6758 193.875 22.6758C192.964 22.6758 192.208 22.9688 191.609 23.5547C191.017 24.1341 190.727 24.9056 190.74 25.8691C190.753 26.8327 191.056 27.6009 191.648 28.1738Z" fill="black"/>
</svg>
